# xmcd
#
# Track frame offsets: 
#        150
#        16086
#        34886
#        60235
#
# Disc length: 1164 seconds
#
# Revision: 0
# Processed by: cddbd v1.4PL0 Copyright (c) Steve Scherf et al.
# Submitted via: ExactAudioCopy v0.90b4
#
DISCID=23048a04
DTITLE=M Hederos M Hellberg - Take Care
DYEAR=2002
DGENRE=Ballad
TTITLE0=Take Care
TTITLE1=I Can't Hold Myself In Line
TTITLE2=It Ain't Me, Babe
TTITLE3=Be With Me
EXTD=
EXTT0=
EXTT1=
EXTT2=
EXTT3=
PLAYORDER=
